<svg width="92" height="65" viewBox="0 0 92 65" fill="none" xmlns="http://www.w3.org/2000/svg">
<g clip-path="url(#clip0)">
<path d="M58.4238 38.4042C52.5114 28.293 46.6514 18.1295 40.6213 7.63901L53.9111 0L76.9588 39.7646C71.0203 39.7646 65.7358 39.7646 60.4382 39.6992" fill="white"/>
<path d="M25.448 21.4519L38.6854 13.8784L53.2178 40.0392L53.3355 39.9346H39.758" fill="white"/>
<path d="M53.3355 39.8954L53.2178 40L53.3355 39.8954Z" fill="white"/>
<path d="M30 39.7776L29.8953 39.8823L30 39.7776Z" fill="white"/>
<path d="M30 39.7776C25.5527 39.7776 21.0922 39.5553 16.671 39.843C13.1262 40.0785 10.811 39.1105 10 35.0425L23.0151 27.5736C25.3826 31.8247 27.6455 35.8535 29.8953 39.8823L30 39.7776Z" fill="white"/>
</g>
<path d="M12.6416 46.672C11.5216 45.748 9.95361 45.272 7.88161 45.272C6.03361 45.272 4.54961 45.692 3.45761 46.476C2.36561 47.26 1.83361 48.352 1.83361 49.724V49.808H5.13761V49.724C5.13761 49.22 5.33361 48.772 5.75361 48.436C6.17361 48.1 6.84561 47.932 7.79761 47.932C9.84161 47.932 10.8776 48.8 10.8776 50.536V51.404H6.98561C5.16561 51.404 3.76561 51.768 2.81361 52.496C1.86161 53.224 1.38561 54.288 1.38561 55.66C1.38561 57.116 1.83361 58.208 2.72961 58.992C3.62561 59.776 4.96961 60.168 6.73361 60.168C7.65761 60.168 8.44161 60.056 9.11361 59.832C9.75761 59.608 10.3736 59.216 10.9616 58.656V60H14.3216V50.704C14.3216 48.968 13.7616 47.624 12.6416 46.672ZM10.8776 54.68C10.8776 56.5 9.72961 57.396 7.48961 57.396C6.56561 57.396 5.86561 57.256 5.41761 56.92C4.96961 56.612 4.74561 56.164 4.74561 55.576C4.74561 54.96 4.96961 54.512 5.44561 54.232C5.89361 53.952 6.62161 53.784 7.62961 53.784H10.8776V54.68ZM20.0542 58.544C21.0902 59.692 22.4622 60.252 24.1982 60.252C25.9902 60.252 27.3622 59.664 28.3142 58.432V60H31.7022V40.68H28.2582V47.008C27.2222 45.804 25.8502 45.188 24.1422 45.188C23.0222 45.188 22.0422 45.468 21.2022 45.972C20.3622 46.476 19.6902 47.232 19.2142 48.212C18.7382 49.22 18.5142 50.396 18.5142 51.796V53.616C18.5142 55.772 19.0182 57.424 20.0542 58.544ZM27.3622 56.22C26.7742 56.836 25.9902 57.144 24.9822 57.144C24.0302 57.144 23.2742 56.864 22.7702 56.248C22.2382 55.632 21.9862 54.708 21.9862 53.476V51.964C21.9862 50.732 22.2382 49.808 22.7702 49.192C23.3022 48.576 24.0582 48.268 25.0662 48.268C26.0742 48.268 26.8582 48.604 27.4182 49.22C27.9782 49.836 28.2582 50.704 28.2582 51.824V53.672C28.2582 54.764 27.9502 55.604 27.3622 56.22ZM36.2743 40.596V43.368H39.7183V40.596H36.2743ZM36.2743 45.44V60H39.7183V45.44H36.2743ZM45.6042 58.544C46.6402 59.692 48.0122 60.252 49.7482 60.252C51.5402 60.252 52.9122 59.664 53.8642 58.432V60H57.2522V40.68H53.8082V47.008C52.7722 45.804 51.4002 45.188 49.6922 45.188C48.5722 45.188 47.5922 45.468 46.7522 45.972C45.9122 46.476 45.2402 47.232 44.7642 48.212C44.2882 49.22 44.0642 50.396 44.0642 51.796V53.616C44.0642 55.772 44.5682 57.424 45.6042 58.544ZM52.9122 56.22C52.3242 56.836 51.5402 57.144 50.5322 57.144C49.5802 57.144 48.8242 56.864 48.3202 56.248C47.7882 55.632 47.5362 54.708 47.5362 53.476V51.964C47.5362 50.732 47.7882 49.808 48.3202 49.192C48.8522 48.576 49.6082 48.268 50.6162 48.268C51.6242 48.268 52.4082 48.604 52.9682 49.22C53.5282 49.836 53.8082 50.704 53.8082 51.824V53.672C53.8082 54.764 53.5002 55.604 52.9122 56.22ZM72.4643 46.672C71.3443 45.748 69.7763 45.272 67.7043 45.272C65.8563 45.272 64.3723 45.692 63.2803 46.476C62.1883 47.26 61.6563 48.352 61.6563 49.724V49.808H64.9603V49.724C64.9603 49.22 65.1563 48.772 65.5763 48.436C65.9963 48.1 66.6683 47.932 67.6203 47.932C69.6643 47.932 70.7003 48.8 70.7003 50.536V51.404H66.8083C64.9883 51.404 63.5883 51.768 62.6363 52.496C61.6843 53.224 61.2083 54.288 61.2083 55.66C61.2083 57.116 61.6563 58.208 62.5523 58.992C63.4483 59.776 64.7923 60.168 66.5563 60.168C67.4803 60.168 68.2643 60.056 68.9363 59.832C69.5803 59.608 70.1963 59.216 70.7843 58.656V60H74.1443V50.704C74.1443 48.968 73.5843 47.624 72.4643 46.672ZM70.7003 54.68C70.7003 56.5 69.5523 57.396 67.3123 57.396C66.3883 57.396 65.6883 57.256 65.2403 56.92C64.7923 56.612 64.5683 56.164 64.5683 55.576C64.5683 54.96 64.7923 54.512 65.2683 54.232C65.7163 53.952 66.4443 53.784 67.4523 53.784H70.7003V54.68ZM79.6001 58.964C80.6921 59.776 82.2321 60.168 84.2201 60.168C86.2361 60.168 87.8041 59.776 88.9801 58.964C90.1561 58.18 90.7441 57.004 90.7441 55.492C90.7441 54.288 90.3241 53.336 89.5401 52.636C88.7281 51.936 87.4961 51.488 85.8161 51.292L83.4921 51.012C82.7361 50.956 82.2041 50.788 81.8961 50.536C81.5601 50.312 81.4201 49.976 81.4201 49.556C81.4201 49.052 81.6441 48.688 82.0921 48.408C82.5401 48.128 83.2681 47.988 84.2201 47.988C85.2281 47.988 85.9841 48.156 86.4881 48.436C86.9921 48.744 87.2441 49.164 87.2441 49.724V49.808H90.4641V49.696C90.4641 48.324 89.9041 47.232 88.8121 46.448C87.6921 45.664 86.1801 45.272 84.2481 45.272C82.3441 45.272 80.8601 45.664 79.7961 46.448C78.7041 47.232 78.1721 48.352 78.1721 49.78C78.1721 51.012 78.5361 51.964 79.3201 52.636C80.1041 53.308 81.3081 53.728 82.9601 53.924L85.1161 54.176C85.9281 54.288 86.5161 54.456 86.8801 54.68C87.2441 54.932 87.4401 55.268 87.4401 55.716C87.4401 56.276 87.1601 56.668 86.6561 56.948C86.1521 57.228 85.3961 57.368 84.4161 57.368C83.3521 57.368 82.5401 57.2 82.0081 56.864C81.4481 56.528 81.1961 56.08 81.1961 55.492V55.436H77.9481V55.52C77.9481 57.004 78.4801 58.152 79.6001 58.964Z" fill="white"/>
<defs>
<clipPath id="clip0">
<rect width="66.9196" height="40" fill="white" transform="translate(10)"/>
</clipPath>
</defs>
</svg>
