<svg width="44" height="32" viewBox="0 0 44 32" fill="none" xmlns="http://www.w3.org/2000/svg">
<path fill-rule="evenodd" clip-rule="evenodd" d="M1.69231 0.958679C1.24348 0.958679 0.813035 1.13666 0.495665 1.45345C0.178296 1.77025 0 2.19992 0 2.64795C0 3.09597 0.178296 3.52564 0.495665 3.84244C0.813035 4.15924 1.24348 4.33721 1.69231 4.33721H42.3077C42.7565 4.33721 43.187 4.15924 43.5043 3.84244C43.8217 3.52564 44 3.09597 44 2.64795C44 2.19992 43.8217 1.77025 43.5043 1.45345C43.187 1.13666 42.7565 0.958679 42.3077 0.958679H1.69231ZM0 16.1621C0 15.7141 0.178296 15.2844 0.495665 14.9676C0.813035 14.6508 1.24348 14.4728 1.69231 14.4728H42.3077C42.7565 14.4728 43.187 14.6508 43.5043 14.9676C43.8217 15.2844 44 15.7141 44 16.1621C44 16.6101 43.8217 17.0398 43.5043 17.3566C43.187 17.6734 42.7565 17.8513 42.3077 17.8513H1.69231C1.24348 17.8513 0.813035 17.6734 0.495665 17.3566C0.178296 17.0398 0 16.6101 0 16.1621ZM0 29.6762C0 29.2282 0.178296 28.7985 0.495665 28.4817C0.813035 28.1649 1.24348 27.9869 1.69231 27.9869H42.3077C42.7565 27.9869 43.187 28.1649 43.5043 28.4817C43.8217 28.7985 44 29.2282 44 29.6762C44 30.1242 43.8217 30.5539 43.5043 30.8707C43.187 31.1875 42.7565 31.3655 42.3077 31.3655H1.69231C1.24348 31.3655 0.813035 31.1875 0.495665 30.8707C0.178296 30.5539 0 30.1242 0 29.6762Z" fill="white"/>
</svg>
