<svg width="100" height="138" viewBox="0 0 100 138" fill="none" xmlns="http://www.w3.org/2000/svg">
<path fill-rule="evenodd" clip-rule="evenodd" d="M50 0.25C63.8071 0.25 75 11.4429 75 25.25V69C75 82.8071 63.8071 94 50 94C36.1929 94 25 82.8071 25 69V25.25C25 11.4429 36.1929 0.25 50 0.25ZM56.25 118.613V125.25H75V137.75H25V125.25H43.75V118.613C19.0856 115.538 0 94.4976 0 69V56.5H12.5V69C12.5 89.7107 29.2893 106.5 50 106.5C70.7107 106.5 87.5 89.7107 87.5 69V56.5H100V69C100 94.4976 80.9145 115.538 56.25 118.613ZM37.5 25.25C37.5 18.3464 43.0964 12.75 50 12.75C56.9036 12.75 62.5 18.3464 62.5 25.25V69C62.5 75.9036 56.9036 81.5 50 81.5C43.0964 81.5 37.5 75.9036 37.5 69V25.25Z" fill="black"/>
</svg>
