<svg width="150" height="150" viewBox="0 0 150 150" fill="none" xmlns="http://www.w3.org/2000/svg">
<g id="24 / shopping / tag">
<path id="icon" fill-rule="evenodd" clip-rule="evenodd" d="M40.8449 31.25H131.25C138.154 31.25 143.75 36.8464 143.75 43.75V106.25C143.75 113.154 138.154 118.75 131.25 118.75H40.8449C36.6655 118.75 32.7626 116.661 30.4443 113.184L7.29969 78.4669C5.9001 76.3675 5.9001 73.6325 7.29969 71.5331L30.4443 36.8162C32.7626 33.3388 36.6655 31.25 40.8449 31.25ZM20.0116 75L40.8449 106.25H131.25V43.75H40.8449L20.0116 75ZM50 75C50 78.4518 47.2018 81.25 43.75 81.25C40.2982 81.25 37.5 78.4518 37.5 75C37.5 71.5482 40.2982 68.75 43.75 68.75C47.2018 68.75 50 71.5482 50 75Z" fill="black"/>
</g>
</svg>
