<svg width="28" height="23" viewBox="0 0 28 23" fill="none" xmlns="http://www.w3.org/2000/svg">
<path d="M0 0.83606V12.7628H28V10.3774H15.0769V7.99209H28V5.60674H15.0769V3.2214H28V0.83606H0ZM2.15385 2.02873C2.43946 2.02873 2.71338 2.15439 2.91535 2.37806C3.11731 2.60173 3.23077 2.90509 3.23077 3.2214C3.23077 3.53772 3.11731 3.84108 2.91535 4.06475C2.71338 4.28842 2.43946 4.41407 2.15385 4.41407C1.86823 4.41407 1.59431 4.28842 1.39235 4.06475C1.19038 3.84108 1.07692 3.53772 1.07692 3.2214C1.07692 2.90509 1.19038 2.60173 1.39235 2.37806C1.59431 2.15439 1.86823 2.02873 2.15385 2.02873ZM6.46154 2.02873C6.74716 2.02873 7.02108 2.15439 7.22304 2.37806C7.425 2.60173 7.53846 2.90509 7.53846 3.2214C7.53846 3.53772 7.425 3.84108 7.22304 4.06475C7.02108 4.28842 6.74716 4.41407 6.46154 4.41407C6.17592 4.41407 5.902 4.28842 5.70004 4.06475C5.49808 3.84108 5.38462 3.53772 5.38462 3.2214C5.38462 2.90509 5.49808 2.60173 5.70004 2.37806C5.902 2.15439 6.17592 2.02873 6.46154 2.02873ZM10.7692 2.02873C11.0548 2.02873 11.3288 2.15439 11.5307 2.37806C11.7327 2.60173 11.8462 2.90509 11.8462 3.2214C11.8462 3.53772 11.7327 3.84108 11.5307 4.06475C11.3288 4.28842 11.0548 4.41407 10.7692 4.41407C10.4836 4.41407 10.2097 4.28842 10.0077 4.06475C9.80577 3.84108 9.69231 3.53772 9.69231 3.2214C9.69231 2.90509 9.80577 2.60173 10.0077 2.37806C10.2097 2.15439 10.4836 2.02873 10.7692 2.02873ZM4.30769 5.60674C4.59331 5.60674 4.86723 5.7324 5.06919 5.95607C5.27115 6.17974 5.38462 6.4831 5.38462 6.79942C5.38462 7.11573 5.27115 7.41909 5.06919 7.64276C4.86723 7.86643 4.59331 7.99209 4.30769 7.99209C4.02207 7.99209 3.74816 7.86643 3.54619 7.64276C3.34423 7.41909 3.23077 7.11573 3.23077 6.79942C3.23077 6.4831 3.34423 6.17974 3.54619 5.95607C3.74816 5.7324 4.02207 5.60674 4.30769 5.60674ZM8.61539 5.60674C8.901 5.60674 9.17492 5.7324 9.37688 5.95607C9.57885 6.17974 9.69231 6.4831 9.69231 6.79942C9.69231 7.11573 9.57885 7.41909 9.37688 7.64276C9.17492 7.86643 8.901 7.99209 8.61539 7.99209C8.32977 7.99209 8.05585 7.86643 7.85389 7.64276C7.65192 7.41909 7.53846 7.11573 7.53846 6.79942C7.53846 6.4831 7.65192 6.17974 7.85389 5.95607C8.05585 5.7324 8.32977 5.60674 8.61539 5.60674ZM12.9231 5.60674C13.2087 5.60674 13.4826 5.7324 13.6846 5.95607C13.8865 6.17974 14 6.4831 14 6.79942C14 7.11573 13.8865 7.41909 13.6846 7.64276C13.4826 7.86643 13.2087 7.99209 12.9231 7.99209C12.6375 7.99209 12.3635 7.86643 12.1616 7.64276C11.9596 7.41909 11.8462 7.11573 11.8462 6.79942C11.8462 6.4831 11.9596 6.17974 12.1616 5.95607C12.3635 5.7324 12.6375 5.60674 12.9231 5.60674ZM2.15385 9.18476C2.43946 9.18476 2.71338 9.31042 2.91535 9.53408C3.11731 9.75775 3.23077 10.0611 3.23077 10.3774C3.23077 10.6937 3.11731 10.9971 2.91535 11.2208C2.71338 11.4444 2.43946 11.5701 2.15385 11.5701C1.86823 11.5701 1.59431 11.4444 1.39235 11.2208C1.19038 10.9971 1.07692 10.6937 1.07692 10.3774C1.07692 10.0611 1.19038 9.75775 1.39235 9.53408C1.59431 9.31042 1.86823 9.18476 2.15385 9.18476ZM6.46154 9.18476C6.74716 9.18476 7.02108 9.31042 7.22304 9.53408C7.425 9.75775 7.53846 10.0611 7.53846 10.3774C7.53846 10.6937 7.425 10.9971 7.22304 11.2208C7.02108 11.4444 6.74716 11.5701 6.46154 11.5701C6.17592 11.5701 5.902 11.4444 5.70004 11.2208C5.49808 10.9971 5.38462 10.6937 5.38462 10.3774C5.38462 10.0611 5.49808 9.75775 5.70004 9.53408C5.902 9.31042 6.17592 9.18476 6.46154 9.18476ZM10.7692 9.18476C11.0548 9.18476 11.3288 9.31042 11.5307 9.53408C11.7327 9.75775 11.8462 10.0611 11.8462 10.3774C11.8462 10.6937 11.7327 10.9971 11.5307 11.2208C11.3288 11.4444 11.0548 11.5701 10.7692 11.5701C10.4836 11.5701 10.2097 11.4444 10.0077 11.2208C9.80577 10.9971 9.69231 10.6937 9.69231 10.3774C9.69231 10.0611 9.80577 9.75775 10.0077 9.53408C10.2097 9.31042 10.4836 9.18476 10.7692 9.18476ZM0 15.1481V17.5335H28V15.1481H0ZM0 19.9188V22.3041H28V19.9188H0Z" fill="white"/>
</svg>
